<mxfile host="Electron" agent="Mozilla/5.0 (Windows NT 10.0; Win64; x64) AppleWebKit/537.36 (KHTML, like Gecko) draw.io/26.2.2 Chrome/134.0.6998.178 Electron/35.1.2 Safari/537.36" version="26.2.2">
  <diagram name="페이지-1" id="wj5oa-Lt_AdRYN1nhwX_">
    <mxGraphModel dx="1524" dy="880" grid="1" gridSize="10" guides="1" tooltips="1" connect="1" arrows="1" fold="1" page="1" pageScale="1" pageWidth="827" pageHeight="1169" math="0" shadow="0">
      <root>
        <mxCell id="0" />
        <mxCell id="1" parent="0" />
        <mxCell id="6MD3b4W0HPMdXb_hcbAM-99" value="" style="rounded=1;whiteSpace=wrap;html=1;" parent="1" vertex="1">
          <mxGeometry x="80" y="130" width="1200" height="470" as="geometry" />
        </mxCell>
        <mxCell id="6MD3b4W0HPMdXb_hcbAM-19" value="" style="curved=1;endArrow=classic;html=1;rounded=0;fontColor=#000000;strokeColor=light-dark(#000000,#FFFFFF);" parent="1" edge="1">
          <mxGeometry width="50" height="50" relative="1" as="geometry">
            <mxPoint x="1090" y="220" as="sourcePoint" />
            <mxPoint x="990" y="230" as="targetPoint" />
            <Array as="points" />
          </mxGeometry>
        </mxCell>
        <mxCell id="6MD3b4W0HPMdXb_hcbAM-20" value="" style="curved=1;endArrow=classic;html=1;rounded=0;fontColor=#000000;labelBorderColor=#000000;strokeColor=#FFFFFF;" parent="1" edge="1">
          <mxGeometry width="50" height="50" relative="1" as="geometry">
            <mxPoint x="1100" y="450" as="sourcePoint" />
            <mxPoint x="1000" y="430" as="targetPoint" />
            <Array as="points" />
          </mxGeometry>
        </mxCell>
        <mxCell id="6MD3b4W0HPMdXb_hcbAM-21" value="" style="endArrow=classic;html=1;rounded=0;fontColor=#000000;strokeColor=light-dark(#000000,#FFFFFF);" parent="1" edge="1">
          <mxGeometry width="50" height="50" relative="1" as="geometry">
            <mxPoint x="1090" y="320" as="sourcePoint" />
            <mxPoint x="1000" y="320" as="targetPoint" />
          </mxGeometry>
        </mxCell>
        <mxCell id="6MD3b4W0HPMdXb_hcbAM-25" value="&lt;font&gt;Thread3&lt;/font&gt;" style="rounded=0;whiteSpace=wrap;html=1;" parent="1" vertex="1">
          <mxGeometry x="1120" y="420" width="110" height="60" as="geometry" />
        </mxCell>
        <mxCell id="6MD3b4W0HPMdXb_hcbAM-27" value="&lt;font&gt;Thread2&lt;/font&gt;" style="rounded=0;whiteSpace=wrap;html=1;" parent="1" vertex="1">
          <mxGeometry x="1120" y="295" width="110" height="60" as="geometry" />
        </mxCell>
        <mxCell id="6MD3b4W0HPMdXb_hcbAM-28" value="&lt;font&gt;Thread1&lt;/font&gt;" style="rounded=0;whiteSpace=wrap;html=1;" parent="1" vertex="1">
          <mxGeometry x="1120" y="185" width="110" height="60" as="geometry" />
        </mxCell>
        <mxCell id="6MD3b4W0HPMdXb_hcbAM-44" value="" style="rounded=1;whiteSpace=wrap;html=1;" parent="1" vertex="1">
          <mxGeometry x="160" y="210" width="810" height="270" as="geometry" />
        </mxCell>
        <mxCell id="6MD3b4W0HPMdXb_hcbAM-45" value="" style="rounded=0;whiteSpace=wrap;html=1;" parent="1" vertex="1">
          <mxGeometry x="220" y="265" width="690" height="160" as="geometry" />
        </mxCell>
        <mxCell id="6MD3b4W0HPMdXb_hcbAM-46" value="Room::Enter" style="rounded=0;whiteSpace=wrap;html=1;" parent="1" vertex="1">
          <mxGeometry x="250" y="325" width="120" height="60" as="geometry" />
        </mxCell>
        <mxCell id="6MD3b4W0HPMdXb_hcbAM-47" value="Job1" style="text;html=1;align=center;verticalAlign=middle;resizable=0;points=[];autosize=1;strokeColor=none;fillColor=none;" parent="1" vertex="1">
          <mxGeometry x="285" y="385" width="50" height="30" as="geometry" />
        </mxCell>
        <mxCell id="6MD3b4W0HPMdXb_hcbAM-48" value="Room::Broadcast" style="rounded=0;whiteSpace=wrap;html=1;" parent="1" vertex="1">
          <mxGeometry x="370" y="325" width="120" height="60" as="geometry" />
        </mxCell>
        <mxCell id="6MD3b4W0HPMdXb_hcbAM-49" value="Rool::HandleMove" style="rounded=0;whiteSpace=wrap;html=1;" parent="1" vertex="1">
          <mxGeometry x="490" y="325" width="120" height="60" as="geometry" />
        </mxCell>
        <mxCell id="6MD3b4W0HPMdXb_hcbAM-50" value="Job2" style="text;html=1;align=center;verticalAlign=middle;resizable=0;points=[];autosize=1;strokeColor=none;fillColor=none;" parent="1" vertex="1">
          <mxGeometry x="405" y="385" width="50" height="30" as="geometry" />
        </mxCell>
        <mxCell id="6MD3b4W0HPMdXb_hcbAM-51" value="Job3" style="text;html=1;align=center;verticalAlign=middle;resizable=0;points=[];autosize=1;strokeColor=none;fillColor=none;" parent="1" vertex="1">
          <mxGeometry x="525" y="385" width="50" height="30" as="geometry" />
        </mxCell>
        <mxCell id="6MD3b4W0HPMdXb_hcbAM-52" value="" style="rounded=0;whiteSpace=wrap;html=1;" parent="1" vertex="1">
          <mxGeometry x="610" y="325" width="120" height="60" as="geometry" />
        </mxCell>
        <mxCell id="6MD3b4W0HPMdXb_hcbAM-53" value="" style="rounded=0;whiteSpace=wrap;html=1;" parent="1" vertex="1">
          <mxGeometry x="730" y="325" width="120" height="60" as="geometry" />
        </mxCell>
        <mxCell id="6MD3b4W0HPMdXb_hcbAM-54" value="JobQueue" style="text;html=1;align=center;verticalAlign=middle;resizable=0;points=[];autosize=1;strokeColor=none;fillColor=none;" parent="1" vertex="1">
          <mxGeometry x="240" y="275" width="80" height="30" as="geometry" />
        </mxCell>
        <mxCell id="6MD3b4W0HPMdXb_hcbAM-32" value="" style="html=1;verticalLabelPosition=bottom;align=center;labelBackgroundColor=#ffffff;verticalAlign=top;strokeWidth=2;strokeColor=#0080F0;shadow=0;dashed=0;shape=mxgraph.ios7.icons.locked;" parent="1" vertex="1">
          <mxGeometry x="930" y="275" width="24" height="30" as="geometry" />
        </mxCell>
        <mxCell id="SzU25-qbcLqWVqrMCbJU-13" value="" style="curved=1;endArrow=classic;html=1;rounded=0;fontColor=#000000;labelBorderColor=#000000;strokeColor=#FFFFFF;exitX=0.5;exitY=1;exitDx=0;exitDy=0;" edge="1" parent="1" source="6MD3b4W0HPMdXb_hcbAM-44">
          <mxGeometry width="50" height="50" relative="1" as="geometry">
            <mxPoint x="675" y="870" as="sourcePoint" />
            <mxPoint x="565" y="570" as="targetPoint" />
            <Array as="points" />
          </mxGeometry>
        </mxCell>
      </root>
    </mxGraphModel>
  </diagram>
</mxfile>
